<?xml version="1.0" encoding="UTF-8"?>
<!DOCTYPE svg PUBLIC "-//W3C//DTD SVG 1.1//EN" "http://www.w3.org/Graphics/SVG/1.1/DTD/svg11.dtd">
<svg xmlns="http://www.w3.org/2000/svg" version="1.1" viewBox="0 0 1024 1024" style="shape-rendering:geometricPrecision; text-rendering:geometricPrecision; image-rendering:optimizeQuality; fill-rule:evenodd; clip-rule:evenodd" xmlns:xlink="http://www.w3.org/1999/xlink">
<g><path style="opacity=1" fill="currentColor" d="M 162.5,297.5 C 395.167,297.333 627.834,297.5 860.5,298C 894.976,302.478 919.142,320.645 933,352.5C 935.555,358.943 937.222,365.61 938,372.5C 938.667,465.167 938.667,557.833 938,650.5C 931.858,686.644 911.358,710.478 876.5,722C 871.239,723.385 865.906,724.385 860.5,725C 843.503,725.5 826.503,725.667 809.5,725.5C 806.869,621.721 763.869,539.555 680.5,479C 601.991,427.361 517.324,414.027 426.5,439C 323.329,472.838 255.829,541.671 224,645.5C 216.9,671.698 213.4,698.365 213.5,725.5C 193.8,725.895 174.133,725.395 154.5,724C 123.61,717.44 102.11,699.606 90,670.5C 87.4447,664.057 85.778,657.39 85,650.5C 84.3333,557.833 84.3333,465.167 85,372.5C 90.331,340.337 107.831,317.504 137.5,304C 145.755,301.021 154.089,298.854 162.5,297.5 Z"/></g>
<g><path style="opacity=1" fill="currentColor" d="M 490.5,511.5 C 581.352,506.835 650.518,542.835 698,619.5C 733.902,688.154 734.569,757.154 700,826.5C 661.688,892.931 604.188,930.098 527.5,938C 436.941,941.15 368.775,903.983 323,826.5C 288.431,757.151 289.098,688.151 325,619.5C 362.837,557.2 418.003,521.2 490.5,511.5 Z M 504.5,597.5 C 530.099,596.285 546.266,607.951 553,632.5C 553.5,649.163 553.667,665.83 553.5,682.5C 569.503,682.333 585.503,682.5 601.5,683C 630.502,689.811 642.335,707.978 637,737.5C 630.15,755.672 616.983,765.505 597.5,767C 582.837,767.5 568.17,767.667 553.5,767.5C 553.667,784.17 553.5,800.837 553,817.5C 547.295,838.698 533.462,850.365 511.5,852.5C 489.538,850.365 475.705,838.698 470,817.5C 469.5,800.837 469.333,784.17 469.5,767.5C 454.83,767.667 440.163,767.5 425.5,767C 399.984,764.485 386.317,750.485 384.5,725C 385.84,701.326 398.173,687.326 421.5,683C 437.497,682.5 453.497,682.333 469.5,682.5C 469.333,665.83 469.5,649.163 470,632.5C 474.348,613.653 485.848,601.986 504.5,597.5 Z"/></g>
</svg>
