<?xml version="1.0" encoding="UTF-8"?>
<!DOCTYPE svg PUBLIC "-//W3C//DTD SVG 1.1//EN" "http://www.w3.org/Graphics/SVG/1.1/DTD/svg11.dtd">
<svg xmlns="http://www.w3.org/2000/svg" version="1.1" viewBox="0 0 1024 1024" style="shape-rendering:geometricPrecision; text-rendering:geometricPrecision; image-rendering:optimizeQuality; fill-rule:evenodd; clip-rule:evenodd" xmlns:xlink="http://www.w3.org/1999/xlink">
<g><path style="opacity=1" fill="currentColor" d="M 804.5,84.5 C 855.193,81.7626 894.36,101.429 922,143.5C 944,184.833 944,226.167 922,267.5C 918.054,273.779 913.721,279.779 909,285.5C 890.333,304.167 871.667,322.833 853,341.5C 795.833,284.333 738.667,227.167 681.5,170C 701.862,149.305 722.528,128.971 743.5,109C 761.89,95.7982 782.224,87.6316 804.5,84.5 Z"/></g>
<g><path style="opacity=1" fill="currentColor" d="M 617.5,233.5 C 674.965,290.465 732.299,347.632 789.5,405C 654.32,540.347 518.986,675.514 383.5,810.5C 382.778,791.048 377.945,772.714 369,755.5C 358.642,741.52 344.809,732.687 327.5,729C 317.286,726.631 306.952,725.131 296.5,724.5C 297.308,701.1 290.808,680.1 277,661.5C 269.857,655.041 261.69,650.208 252.5,647C 239.334,643.033 226,640.367 212.5,639C 347.701,503.965 482.701,368.799 617.5,233.5 Z"/></g>
<g><path style="opacity=1" fill="currentColor" d="M 155.5,724.5 C 203.763,771.096 251.43,818.43 298.5,866.5C 249.638,876.439 200.638,885.939 151.5,895C 141.625,897.269 134.125,894.102 129,885.5C 127.524,880.924 127.19,876.257 128,871.5C 137.169,822.487 146.335,773.487 155.5,724.5 Z"/></g>
</svg>
