<?xml version="1.0" encoding="UTF-8"?>
<!DOCTYPE svg PUBLIC "-//W3C//DTD SVG 1.1//EN" "http://www.w3.org/Graphics/SVG/1.1/DTD/svg11.dtd">
<svg xmlns="http://www.w3.org/2000/svg" version="1.1" viewBox="0 0 1024 1024" style="shape-rendering:geometricPrecision; text-rendering:geometricPrecision; image-rendering:optimizeQuality; fill-rule:evenodd; clip-rule:evenodd" xmlns:xlink="http://www.w3.org/1999/xlink">
<g><path style="opacity=1" fill="currentColor" d="M 494.5,169.5 C 624.744,166.842 737.744,209.009 833.5,296C 893.692,352.178 941.525,417.345 977,491.5C 983,504.833 983,518.167 977,531.5C 932.336,624.64 868.836,702.474 786.5,765C 671.203,845.06 544.536,870.727 406.5,842C 323.428,822.141 250.762,783.474 188.5,726C 129.149,669.778 81.6495,604.944 46,531.5C 41.4869,521.162 40.4869,510.496 43,499.5C 88.4691,398.42 156.302,315.587 246.5,251C 321.365,200.323 404.032,173.156 494.5,169.5 Z M 499.5,298.5 C 580.563,297.112 644.063,329.445 690,395.5C 726.911,455.458 733.911,518.791 711,585.5C 684.713,651.12 637.88,694.62 570.5,716C 495.968,735.029 429.301,720.029 370.5,671C 307.266,610.61 286.099,537.777 307,452.5C 333.274,372.893 387.107,323.06 468.5,303C 478.944,301.239 489.277,299.739 499.5,298.5 Z"/></g>
<g><path style="opacity=1" fill="currentColor" d="M 495.5,383.5 C 552.677,379.335 595.843,401.668 625,450.5C 640.441,481.548 643.775,513.882 635,547.5C 617.55,599.618 581.717,630.118 527.5,639C 470.301,643.653 427.135,621.486 398,572.5C 382.559,541.452 379.225,509.118 388,475.5C 405.618,423.371 441.452,392.704 495.5,383.5 Z"/></g>
</svg>
