<?xml version="1.0" encoding="UTF-8"?>
<!DOCTYPE svg PUBLIC "-//W3C//DTD SVG 1.1//EN" "http://www.w3.org/Graphics/SVG/1.1/DTD/svg11.dtd">
<svg xmlns="http://www.w3.org/2000/svg" version="1.1" viewBox="0 0 1024 1024" style="shape-rendering:geometricPrecision; text-rendering:geometricPrecision; image-rendering:optimizeQuality; fill-rule:evenodd; clip-rule:evenodd" xmlns:xlink="http://www.w3.org/1999/xlink">
<g><path style="opacity:1" fill="currentColor" d="M 675.5,127.5 C 759.827,123.242 824.327,156.575 869,227.5C 904.333,294.5 904.333,361.5 869,428.5C 862.404,439.36 855.07,449.694 847,459.5C 824.5,482 802,504.5 779.5,527C 748.679,553.405 713.012,568.905 672.5,573.5C 670.084,551.841 667.751,530.175 665.5,508.5C 688.703,505.895 709.703,497.728 728.5,484C 753.604,462.231 777.437,439.064 800,414.5C 836.734,365.084 840.734,313.084 812,258.5C 777.237,206.378 728.737,185.212 666.5,195C 645.027,200.071 625.694,209.404 608.5,223C 586,244.167 564.167,266 543,288.5C 526.911,308.691 517.411,331.691 514.5,357.5C 492.825,355.249 471.159,352.916 449.5,350.5C 454.095,309.988 469.595,274.321 496,243.5C 518.5,221 541,198.5 563.5,176C 595.964,148.601 633.298,132.435 675.5,127.5 Z"/></g>
<g><path style="opacity:1" fill="currentColor" d="M 245.5,200.5 C 289.097,242.429 332.097,285.096 374.5,328.5C 359.5,344.167 344.167,359.5 328.5,374.5C 285.5,332.167 242.833,289.5 200.5,246.5C 215.521,231.146 230.521,215.813 245.5,200.5 Z"/></g>
<g><path style="opacity:1" fill="currentColor" d="M 342.5,449.5 C 345.167,449.5 347.833,449.5 350.5,449.5C 352.916,471.159 355.249,492.825 357.5,514.5C 334.297,517.105 313.297,525.272 294.5,539C 269.396,560.769 245.563,583.936 223,608.5C 186.267,657.903 182.267,709.903 211,764.5C 245.758,816.619 294.258,837.785 356.5,828C 377.983,822.924 397.316,813.591 414.5,800C 437,778.833 458.833,757 480,734.5C 496.088,714.311 505.588,691.311 508.5,665.5C 530.175,667.751 551.841,670.084 573.5,672.5C 569.517,710.297 555.684,743.964 532,773.5C 508.195,798.305 484.028,822.805 459.5,847C 403.153,892.538 339.82,905.871 269.5,887C 191.961,860.462 145.461,806.962 130,726.5C 121.955,668.339 135.622,616.005 171,569.5C 194.805,544.695 218.972,520.195 243.5,496C 272.427,471.87 305.427,456.37 342.5,449.5 Z"/></g>
<g><path style="opacity:1" fill="currentColor" d="M 693.5,648.5 C 737.097,690.429 780.097,733.096 822.5,776.5C 807.5,792.167 792.167,807.5 776.5,822.5C 733.5,780.167 690.833,737.5 648.5,694.5C 663.521,679.146 678.521,663.813 693.5,648.5 Z"/></g>
</svg>
