<?xml version="1.0" encoding="UTF-8"?>
<!DOCTYPE svg PUBLIC "-//W3C//DTD SVG 1.1//EN" "http://www.w3.org/Graphics/SVG/1.1/DTD/svg11.dtd">
<svg xmlns="http://www.w3.org/2000/svg" version="1.1" viewBox="0 0 1024 1024" style="shape-rendering:geometricPrecision; text-rendering:geometricPrecision; image-rendering:optimizeQuality; fill-rule:evenodd; clip-rule:evenodd" xmlns:xlink="http://www.w3.org/1999/xlink">
<g><path style="opacity=1" fill="currentColor" d="M 179.5,212.5 C 400.834,212.333 622.167,212.5 843.5,213C 882.225,219.39 906.725,241.557 917,279.5C 941.681,359.557 961.014,440.891 975,523.5C 981.116,558.349 982.45,593.349 979,628.5C 965.752,704.194 924.585,758.694 855.5,792C 832.531,802.076 808.531,808.076 783.5,810C 602.167,810.667 420.833,810.667 239.5,810C 162.812,802.098 105.312,764.931 67,698.5C 47.9168,662.165 39.5834,623.498 42,582.5C 45.0779,538.698 51.4112,495.365 61,452.5C 74.8569,389.072 91.5236,326.405 111,264.5C 124.794,235.194 147.627,217.86 179.5,212.5 Z M 340.5,383.5 C 366.567,386.067 380.734,400.401 383,426.5C 383.5,440.829 383.667,455.163 383.5,469.5C 400.17,469.333 416.837,469.5 433.5,470C 454.698,475.705 466.365,489.538 468.5,511.5C 466.365,533.462 454.698,547.295 433.5,553C 416.837,553.5 400.17,553.667 383.5,553.5C 383.667,567.837 383.5,582.171 383,596.5C 380.803,622.364 366.803,636.697 341,639.5C 317.473,637.305 303.473,624.638 299,601.5C 298.5,585.503 298.333,569.503 298.5,553.5C 281.83,553.667 265.163,553.5 248.5,553C 226.526,547.859 214.859,534.026 213.5,511.5C 214.859,488.974 226.526,475.141 248.5,470C 265.163,469.5 281.83,469.333 298.5,469.5C 298.333,453.497 298.5,437.497 299,421.5C 303.48,398.516 317.313,385.85 340.5,383.5 Z M 681.5,383.5 C 707.275,386.108 721.608,400.275 724.5,426C 721.667,451.5 707.5,465.667 682,468.5C 656.328,465.828 642.494,451.662 640.5,426C 641.18,407.632 649.846,394.632 666.5,387C 671.545,385.425 676.545,384.259 681.5,383.5 Z M 762.5,554.5 C 787.076,554.256 802.576,565.923 809,589.5C 810.884,614.269 800.051,630.435 776.5,638C 757.855,640.755 743.022,634.588 732,619.5C 720.216,596.142 724.716,576.642 745.5,561C 751.02,558.11 756.686,555.943 762.5,554.5 Z"/></g>
</svg>
