<?xml version="1.0" encoding="UTF-8"?>
<!DOCTYPE svg PUBLIC "-//W3C//DTD SVG 1.1//EN" "http://www.w3.org/Graphics/SVG/1.1/DTD/svg11.dtd">
<svg xmlns="http://www.w3.org/2000/svg" version="1.1" viewBox="0 0 1024 1024" style="shape-rendering:geometricPrecision; text-rendering:geometricPrecision; image-rendering:optimizeQuality; fill-rule:evenodd; clip-rule:evenodd" xmlns:xlink="http://www.w3.org/1999/xlink">
<g><path style="opacity=1" fill="currentColor" d="M 502.5,127.5 C 529.619,124.817 546.785,136.484 554,162.5C 554.5,264.499 554.667,366.499 554.5,468.5C 656.501,468.333 758.501,468.5 860.5,469C 882.968,474.299 894.635,488.466 895.5,511.5C 894.635,534.534 882.968,548.701 860.5,554C 758.501,554.5 656.501,554.667 554.5,554.5C 554.667,656.501 554.5,758.501 554,860.5C 548.701,882.968 534.534,894.635 511.5,895.5C 488.466,894.635 474.299,882.968 469,860.5C 468.5,758.501 468.333,656.501 468.5,554.5C 366.499,554.667 264.499,554.5 162.5,554C 135.88,546.623 124.38,529.123 128,501.5C 133.045,483.788 144.545,472.954 162.5,469C 264.499,468.5 366.499,468.333 468.5,468.5C 468.333,366.499 468.5,264.499 469,162.5C 473.247,144.088 484.414,132.422 502.5,127.5 Z"/></g>
</svg>
