<?xml version="1.0" encoding="UTF-8"?>
<!DOCTYPE svg PUBLIC "-//W3C//DTD SVG 1.1//EN" "http://www.w3.org/Graphics/SVG/1.1/DTD/svg11.dtd">
<svg xmlns="http://www.w3.org/2000/svg" version="1.1" viewBox="0 0 1024 1024" style="shape-rendering:geometricPrecision; text-rendering:geometricPrecision; image-rendering:optimizeQuality; fill-rule:evenodd; clip-rule:evenodd" xmlns:xlink="http://www.w3.org/1999/xlink">
<g><path style="opacity=1" fill="currentColor" d="M 160.5,255.5 C 184.366,252.51 201.2,261.843 211,283.5C 211.794,286.471 212.461,289.471 213,292.5C 213.667,438.5 213.667,584.5 213,730.5C 208.27,754.027 193.936,766.361 170,767.5C 148.116,766.624 134.116,755.624 128,734.5C 127.333,585.833 127.333,437.167 128,288.5C 133.016,271.651 143.85,260.651 160.5,255.5 Z"/></g>
<g><path style="opacity=1" fill="currentColor" d="M 505.5,294.5 C 531.443,293.537 547.61,305.537 554,330.5C 554.667,451.5 554.667,572.5 554,693.5C 548.131,715.2 533.964,726.866 511.5,728.5C 500.696,728.066 491.029,724.566 482.5,718C 401.009,660.087 319.342,602.421 237.5,545C 222.556,530.386 218.723,513.22 226,493.5C 228.98,487.709 232.813,482.543 237.5,478C 319.342,420.579 401.009,362.913 482.5,305C 489.506,299.827 497.173,296.327 505.5,294.5 Z"/></g>
<g><path style="opacity=1" fill="currentColor" d="M 846.5,294.5 C 871.703,293.234 887.87,304.568 895,328.5C 895.667,450.5 895.667,572.5 895,694.5C 888.828,715.686 874.661,727.019 852.5,728.5C 841.143,728.105 831.143,724.272 822.5,717C 742.111,659.611 661.444,602.611 580.5,546C 561.331,528.142 558.497,507.976 572,485.5C 574.833,482.667 577.667,479.833 580.5,477C 665.325,417.087 750.325,357.421 835.5,298C 839.254,296.691 842.921,295.525 846.5,294.5 Z"/></g>
</svg>
