<svg version="1.2" xmlns="http://www.w3.org/2000/svg" viewBox="0 0 512 512">
	<title>New Project</title>
	<style>
		.s0 { fill: currentColor } 
		.s1 { fill: none;stroke: currentColor;stroke-linecap: round;stroke-linejoin: round;stroke-width: 28 } 
	</style>
	<path id="C" class="s0" aria-label="C"  d="m139.4 227c21 0 38.8-8.3 52.3-24l-18.3-21.5c-8.2 9.3-19 15.8-32.7 15.8-25-0.1-41.3-20.6-41.3-55.3 0-34 18-54.5 41.8-54.5 12.2 0 21.2 5.5 29.5 13.2l18.2-22c-10.7-11-27.5-21-48.5-21-41.2 0-76.2 31.5-76.2 85.5 0 54.5 34 83.8 75.2 83.8z"/>
	<path id="S" class="s0" aria-label="S"  d="m378.7 454c38 0 60.5-23 60.5-50 0-23.3-13-36-32.8-44.3l-21-8.5c-14-5.7-25.2-9.7-25.2-20.7 0-10 8.7-16 22.2-16 13.3 0 23.8 4.7 34.5 13.2l17.3-21.7c-13.5-13.5-32.8-21.3-51.8-21.3-33.2 0-57 21.3-57 47.8 0 23.8 16.3 37.3 33 44.3l21.5 9.2c14.5 6 24.3 9.5 24.3 20.8 0 10.7-8.5 17.5-24.8 17.5-14 0-29.2-7-41-17.5l-19.7 23.5c16.2 15.5 38.5 23.7 60 23.7z"/>
	<path id="Shape 1" class="s1" d="m412.3 95l3.9 3.9-317.3 317.3-3.9-3.9z"/>
</svg>