<?xml version="1.0" encoding="UTF-8"?>
<!DOCTYPE svg PUBLIC "-//W3C//DTD SVG 1.1//EN" "http://www.w3.org/Graphics/SVG/1.1/DTD/svg11.dtd">
<svg xmlns="http://www.w3.org/2000/svg" version="1.1" viewBox="0 0 1024 1024" style="shape-rendering:geometricPrecision; text-rendering:geometricPrecision; image-rendering:optimizeQuality; fill-rule:evenodd; clip-rule:evenodd" xmlns:xlink="http://www.w3.org/1999/xlink">
<g><path style="opacity=1" fill="currentColor" d="M 504.5,84.5 C 518.01,83.0612 530.01,86.5612 540.5,95C 615,165.5 689.5,236 764,306.5C 770.71,319.577 768.21,330.41 756.5,339C 754.5,339.667 752.5,340.333 750.5,341C 699.501,341.5 648.501,341.667 597.5,341.5C 597.99,458.535 597.49,575.535 596,692.5C 590.753,711.079 578.586,721.913 559.5,725C 527.5,725.667 495.5,725.667 463.5,725C 444.414,721.913 432.247,711.079 427,692.5C 425.51,575.535 425.01,458.535 425.5,341.5C 374.499,341.667 323.499,341.5 272.5,341C 258.645,336.469 253.145,326.969 256,312.5C 260.373,305.12 265.873,298.62 272.5,293C 342.5,227 412.5,161 482.5,95C 489.008,89.5778 496.341,86.0778 504.5,84.5 Z"/></g>
<g><path style="opacity=1" fill="currentColor" d="M 119.5,852.5 C 380.834,852.333 642.167,852.5 903.5,853C 930.754,860.601 942.254,878.434 938,906.5C 932.539,923.628 921.039,934.128 903.5,938C 642.167,938.667 380.833,938.667 119.5,938C 92.2456,930.399 80.7456,912.566 85,884.5C 90.6366,867.359 102.137,856.692 119.5,852.5 Z"/></g>
</svg>
