<?xml version="1.0" encoding="UTF-8"?>
<!DOCTYPE svg PUBLIC "-//W3C//DTD SVG 1.1//EN" "http://www.w3.org/Graphics/SVG/1.1/DTD/svg11.dtd">
<svg xmlns="http://www.w3.org/2000/svg" version="1.1" viewBox="0 0 1024 1024" style="shape-rendering:geometricPrecision; text-rendering:geometricPrecision; image-rendering:optimizeQuality; fill-rule:evenodd; clip-rule:evenodd" xmlns:xlink="http://www.w3.org/1999/xlink">
<g><path style="opacity=1" fill="currentColor" d="M 516.5,169.5 C 536.241,167.27 548.741,175.603 554,194.5C 554.667,405.833 554.667,617.167 554,828.5C 548.757,847.55 536.257,855.716 516.5,853C 512.462,852.101 508.795,850.434 505.5,848C 436.167,778.667 366.833,709.333 297.5,640C 264.833,639.667 232.167,639.333 199.5,639C 157.09,630.256 132.924,604.423 127,561.5C 126.054,525.473 126.387,489.473 128,453.5C 135.864,417.303 157.697,394.47 193.5,385C 228.133,383.708 262.8,383.041 297.5,383C 366.833,313.667 436.167,244.333 505.5,175C 509.017,172.674 512.683,170.84 516.5,169.5 Z"/></g>
<g><path style="opacity=1" fill="currentColor" d="M 759.5,256.5 C 770.837,255.781 781.171,258.614 790.5,265C 859.179,332.46 894.179,414.627 895.5,511.5C 894.295,598.321 865.462,674.321 809,739.5C 802.136,746.698 794.97,753.532 787.5,760C 767.206,770.473 748.706,767.973 732,752.5C 719.62,735.719 718.287,718.052 728,699.5C 801.608,625.08 824.941,537.08 798,435.5C 783.766,392.341 760.433,355.008 728,323.5C 716.048,299.585 720.548,279.419 741.5,263C 747.301,259.903 753.301,257.736 759.5,256.5 Z"/></g>
<g><path style="opacity=1" fill="currentColor" d="M 636.5,377.5 C 655.351,375.844 670.518,382.51 682,397.5C 726.492,452.46 736.159,513.127 711,579.5C 701.404,600.869 688.237,619.702 671.5,636C 651.264,649.51 631.931,648.344 613.5,632.5C 600.481,617.164 597.981,600.164 606,581.5C 610.623,575.208 615.623,569.208 621,563.5C 639.63,538.006 643.63,510.339 633,480.5C 627.333,467.503 619.333,456.169 609,446.5C 597.668,429.175 597.668,411.842 609,394.5C 616.292,385.613 625.458,379.947 636.5,377.5 Z"/></g>
</svg>
