<?xml version="1.0" encoding="UTF-8"?>
<!DOCTYPE svg PUBLIC "-//W3C//DTD SVG 1.1//EN" "http://www.w3.org/Graphics/SVG/1.1/DTD/svg11.dtd">
<svg xmlns="http://www.w3.org/2000/svg" version="1.1" viewBox="0 0 1024 1024" style="shape-rendering:geometricPrecision; text-rendering:geometricPrecision; image-rendering:optimizeQuality; fill-rule:evenodd; clip-rule:evenodd" xmlns:xlink="http://www.w3.org/1999/xlink">
<g><path style="opacity=1" fill="currentColor" d="M 551.5,39.5 C 577.047,40.8841 593.214,53.8841 600,78.5C 602.391,91.763 600.058,104.096 593,115.5C 527.376,182.958 461.209,249.958 394.5,316.5C 398.485,320.985 402.651,325.318 407,329.5C 454.667,281.833 502.333,234.167 550,186.5C 550.167,187 550.333,187.5 550.5,188C 503.746,297.674 456.58,407.174 409,516.5C 406.167,519.333 403.333,522.167 400.5,525C 399.833,525.667 399.167,525.667 398.5,525C 356.663,459.493 298.329,437.826 223.5,460C 201.287,469.001 182.454,482.501 167,500.5C 160.63,512.192 159.964,524.192 165,536.5C 192.04,584.081 219.207,631.581 246.5,679C 227.833,697.667 209.167,716.333 190.5,735C 189.833,735.667 189.167,735.667 188.5,735C 169,715.5 149.5,696 130,676.5C 97.3282,637.845 83.1615,593.178 87.5,542.5C 71.684,431.455 55.684,320.455 39.5,209.5C 86.0323,192.036 126.199,201.37 160,237.5C 166.616,246.395 171.95,256.061 176,266.5C 184.004,301.849 192.004,337.183 200,372.5C 306.833,264.333 414.333,156.833 522.5,50C 531.287,43.7956 540.954,40.2956 551.5,39.5 Z"/></g>
<g><path style="opacity=1" fill="currentColor" d="M 931.5,55.5 C 932.552,55.3505 933.552,55.5172 934.5,56C 947.667,69.1667 960.833,82.3333 974,95.5C 974.667,96.1667 974.667,96.8333 974,97.5C 682.694,389.806 391.027,681.806 99,973.5C 85.1667,959.667 71.3333,945.833 57.5,932C 349.062,639.938 640.395,347.772 931.5,55.5 Z"/></g>
<g><path style="opacity=1" fill="currentColor" d="M 681.5,69.5 C 712.354,68.3769 731.354,82.7103 738.5,112.5C 738.392,113.442 738.059,114.275 737.5,115C 718.524,122.641 703.857,135.307 693.5,153C 689.076,151.291 685.076,148.624 681.5,145C 656.041,129.986 629.375,127.486 601.5,137.5C 601.167,137.167 600.833,136.833 600.5,136.5C 619.015,117.152 638.015,98.3187 657.5,80C 664.745,74.5387 672.745,71.0387 681.5,69.5 Z"/></g>
<g><path style="opacity=1" fill="currentColor" d="M 710.5,213.5 C 715.988,200.521 721.488,187.521 727,174.5C 737.768,155.865 753.934,147.365 775.5,149C 753.965,170.702 732.299,192.202 710.5,213.5 Z"/></g>
<g><path style="opacity=1" fill="currentColor" d="M 486.5,438.5 C 519.706,360.416 553.206,282.416 587,204.5C 597.522,179.326 616.356,168.493 643.5,172C 672.586,181.333 685.086,201.167 681,231.5C 678.887,238.392 676.22,245.059 673,251.5C 611.326,314.34 549.16,376.674 486.5,438.5 Z"/></g>
<g><path style="opacity=1" fill="currentColor" d="M 710.5,213.5 C 709.833,214.167 709.833,214.167 710.5,213.5 Z"/></g>
<g><path style="opacity=1" fill="currentColor" d="M 895.5,239.5 C 900.531,241.117 904.697,244.117 908,248.5C 919.231,262.77 922.565,278.77 918,296.5C 876.987,393.039 835.487,489.372 793.5,585.5C 798.605,588.259 803.771,590.926 809,593.5C 836.409,530.352 864.076,467.352 892,404.5C 905.61,386.738 923.443,380.238 945.5,385C 973.716,394.901 985.883,414.735 982,444.5C 980.595,450.382 978.595,456.049 976,461.5C 913.725,604.383 851.725,747.383 790,890.5C 755.501,949.602 703.835,980.602 635,983.5C 614.593,983.218 594.76,979.718 575.5,973C 537.717,956.942 500.05,940.608 462.5,924C 415.095,899.923 383.595,862.423 368,811.5C 363.333,803.5 358.667,795.5 354,787.5C 352.813,785.956 352.48,784.289 353,782.5C 482.667,652.833 612.333,523.167 742,393.5C 721.969,441.411 701.469,489.244 680.5,537C 686.348,540.09 692.348,542.923 698.5,545.5C 727.163,481.495 755.33,417.162 783,352.5C 820.701,314.965 858.201,277.299 895.5,239.5 Z"/></g>
<g><path style="opacity=1" fill="currentColor" d="M 486.5,438.5 C 485.833,439.167 485.833,439.167 486.5,438.5 Z"/></g>
<g><path style="opacity=1" fill="currentColor" d="M 263.5,490.5 C 298.677,488.163 327.843,500.163 351,526.5C 357.871,535.74 364.371,545.24 370.5,555C 339,586.5 307.5,618 276,649.5C 250.967,606.629 226.134,563.629 201.5,520.5C 219.082,504.042 239.749,494.042 263.5,490.5 Z"/></g>
</svg>
