<?xml version="1.0" encoding="UTF-8"?>
<!DOCTYPE svg PUBLIC "-//W3C//DTD SVG 1.1//EN" "http://www.w3.org/Graphics/SVG/1.1/DTD/svg11.dtd">
<svg xmlns="http://www.w3.org/2000/svg" version="1.1" viewBox="0 0 1024 1024" style="shape-rendering:geometricPrecision; text-rendering:geometricPrecision; image-rendering:optimizeQuality; fill-rule:evenodd; clip-rule:evenodd" xmlns:xlink="http://www.w3.org/1999/xlink">
<g><path style="opacity=1" fill="currentColor" d="M 931.5,55.5 C 932.552,55.3505 933.552,55.5172 934.5,56C 947.667,69.1667 960.833,82.3333 974,95.5C 974.667,96.1667 974.667,96.8333 974,97.5C 682.694,389.806 391.027,681.806 99,973.5C 85.1667,959.667 71.3333,945.833 57.5,932C 349.062,639.938 640.395,347.772 931.5,55.5 Z"/></g>
<g><path style="opacity=1" fill="currentColor" d="M 374.5,86.5 C 406.167,86.5 437.833,86.5 469.5,86.5C 469.667,209.834 469.5,333.167 469,456.5C 414.5,511 360,565.5 305.5,620C 289.837,620.5 274.17,620.667 258.5,620.5C 265.756,571.377 273.756,522.377 282.5,473.5C 230.18,420.68 177.68,368.014 125,315.5C 111.713,293.055 114.547,272.888 133.5,255C 152.339,243.143 170.673,243.81 188.5,257C 225.333,293.833 262.167,330.667 299,367.5C 313.653,283.917 327.986,200.251 342,116.5C 347.618,100.71 358.451,90.7104 374.5,86.5 Z"/></g>
<g><path style="opacity=1" fill="currentColor" d="M 553.5,86.5 C 585.168,86.3334 616.835,86.5 648.5,87C 664.724,90.8909 675.558,100.724 681,116.5C 687.221,152.329 693.388,188.162 699.5,224C 651.736,273.765 603.236,322.932 554,371.5C 553.5,276.501 553.333,181.501 553.5,86.5 Z"/></g>
<g><path style="opacity=1" fill="currentColor" d="M 728.5,406.5 C 741.559,477.518 753.559,548.852 764.5,620.5C 694.167,620.5 623.833,620.5 553.5,620.5C 553.333,607.496 553.5,594.496 554,581.5C 612.368,523.299 670.535,464.965 728.5,406.5 Z"/></g>
<g><path style="opacity=1" fill="currentColor" d="M 430.5,704.5 C 546.833,704.5 663.167,704.5 779.5,704.5C 789.556,765.838 799.723,827.171 810,888.5C 812.904,916.566 800.737,933.733 773.5,940C 598.833,940.667 424.167,940.667 249.5,940C 236.417,937.892 226.251,931.392 219,920.5C 218.333,919.5 218.333,918.5 219,917.5C 289.341,846.326 359.841,775.326 430.5,704.5 Z"/></g>
</svg>
