<?xml version="1.0" encoding="UTF-8"?>
<!DOCTYPE svg PUBLIC "-//W3C//DTD SVG 1.1//EN" "http://www.w3.org/Graphics/SVG/1.1/DTD/svg11.dtd">
<svg xmlns="http://www.w3.org/2000/svg" version="1.1" viewBox="0 0 1024 1024" style="shape-rendering:geometricPrecision; text-rendering:geometricPrecision; image-rendering:optimizeQuality; fill-rule:evenodd; clip-rule:evenodd" xmlns:xlink="http://www.w3.org/1999/xlink">
<g><path style="opacity=1" fill="currentColor" d="M 254.5,84.5 C 353.167,84.3333 451.834,84.5 550.5,85C 554.729,86.1146 558.729,87.7813 562.5,90C 658.361,185.527 753.861,281.361 849,377.5C 851.133,381.232 852.466,385.232 853,389.5C 853.5,452.166 853.667,514.832 853.5,577.5C 840.233,579.304 828.233,584.137 817.5,592C 808.319,601.348 798.986,610.514 789.5,619.5C 788.5,555.17 788.167,490.837 788.5,426.5C 724.499,426.667 660.499,426.5 596.5,426C 559.546,420.285 533.379,400.452 518,366.5C 515.184,359.386 513.184,352.053 512,344.5C 511.5,279.501 511.333,214.501 511.5,149.5C 427.499,149.333 343.499,149.5 259.5,150C 245.77,153.729 237.603,162.562 235,176.5C 234.333,399.833 234.333,623.167 235,846.5C 237.603,860.438 245.77,869.271 259.5,873C 427.167,873.667 594.833,873.667 762.5,873C 773.76,870.621 781.594,864.121 786,853.5C 787.011,852.663 788.178,852.33 789.5,852.5C 789.667,879.169 789.5,905.835 789,932.5C 782.121,935.344 774.955,937.177 767.5,938C 596.5,938.667 425.5,938.667 254.5,938C 205.637,928.804 177.47,899.637 170,850.5C 169.333,624.5 169.333,398.5 170,172.5C 177.652,123.35 205.819,94.0166 254.5,84.5 Z M 575.5,195.5 C 630.965,250.465 686.299,305.632 741.5,361C 694.833,361.667 648.167,361.667 601.5,361C 585.072,357.001 576.572,346.501 576,329.5C 575.5,284.835 575.333,240.168 575.5,195.5 Z"/></g>
<g><path style="opacity=1" fill="currentColor" d="M 858.5,617.5 C 868.193,616.667 876.859,619.167 884.5,625C 921.667,662.167 958.833,699.333 996,736.5C 1005.56,752.225 1004.39,767.059 992.5,781C 978.939,791.397 964.939,792.064 950.5,783C 932.333,764.833 914.167,746.667 896,728.5C 895.667,804.5 895.333,880.5 895,956.5C 890.322,972.097 879.822,980.431 863.5,981.5C 847.737,980.372 837.237,972.372 832,957.5C 831.667,881.167 831.333,804.833 831,728.5C 812.833,746.667 794.667,764.833 776.5,783C 761.164,792.407 746.664,791.241 733,779.5C 722.476,765.674 721.809,751.341 731,736.5C 768.167,699.333 805.333,662.167 842.5,625C 847.426,621.424 852.76,618.924 858.5,617.5 Z"/></g>
</svg>
