<?xml version="1.0" encoding="UTF-8"?>
<!DOCTYPE svg PUBLIC "-//W3C//DTD SVG 1.1//EN" "http://www.w3.org/Graphics/SVG/1.1/DTD/svg11.dtd">
<svg xmlns="http://www.w3.org/2000/svg" version="1.1" viewBox="0 0 1024 1024" style="shape-rendering:geometricPrecision; text-rendering:geometricPrecision; image-rendering:optimizeQuality; fill-rule:evenodd; clip-rule:evenodd" xmlns:xlink="http://www.w3.org/1999/xlink">
<g><path style="opacity=1" fill="currentColor" d="M 307.5,423.5 C 321.49,421.664 334.157,424.831 345.5,433C 400.68,488.347 456.014,543.514 511.5,598.5C 566.986,543.514 622.32,488.347 677.5,433C 696.833,420.333 716.167,420.333 735.5,433C 755.881,453.639 757.714,475.806 741,499.5C 674.167,566.333 607.333,633.167 540.5,700C 521.167,714 501.833,714 482.5,700C 414.306,632.139 346.472,563.973 279,495.5C 265.7,472.467 268.533,451.633 287.5,433C 293.601,428.448 300.268,425.281 307.5,423.5 Z"/></g>
</svg>
