<?xml version="1.0" encoding="UTF-8"?>
<!DOCTYPE svg PUBLIC "-//W3C//DTD SVG 1.1//EN" "http://www.w3.org/Graphics/SVG/1.1/DTD/svg11.dtd">
<svg xmlns="http://www.w3.org/2000/svg" version="1.1" viewBox="0 0 1024 1024" style="shape-rendering:geometricPrecision; text-rendering:geometricPrecision; image-rendering:optimizeQuality; fill-rule:evenodd; clip-rule:evenodd" xmlns:xlink="http://www.w3.org/1999/xlink">
<g><path style="opacity=1" fill="currentColor" d="M 551.5,39.5 C 577.047,40.8841 593.214,53.8841 600,78.5C 602.391,91.763 600.058,104.096 593,115.5C 527.376,182.958 461.209,249.958 394.5,316.5C 398.485,320.985 402.651,325.318 407,329.5C 454.667,281.833 502.333,234.167 550,186.5C 550.167,187 550.333,187.5 550.5,188C 501.913,302.008 452.913,415.841 403.5,529.5C 402.833,530.833 402.167,530.833 401.5,529.5C 363.816,465.497 308.483,440.997 235.5,456C 219.939,460.615 205.605,467.615 192.5,477C 186.5,481.667 180.5,486.333 174.5,491C 159.993,506.561 157.826,523.728 168,542.5C 219.167,631.5 270.333,720.5 321.5,809.5C 284.249,806.546 251.249,793.046 222.5,769C 191.667,738.167 160.833,707.333 130,676.5C 97.3282,637.845 83.1615,593.178 87.5,542.5C 71.684,431.455 55.684,320.455 39.5,209.5C 86.0323,192.036 126.199,201.37 160,237.5C 166.616,246.395 171.95,256.061 176,266.5C 184.004,301.849 192.004,337.183 200,372.5C 306.833,264.333 414.333,156.833 522.5,50C 531.287,43.7956 540.954,40.2956 551.5,39.5 Z"/></g>
<g><path style="opacity=1" fill="currentColor" d="M 681.5,69.5 C 712.354,68.3769 731.354,82.7103 738.5,112.5C 738.392,113.442 738.059,114.275 737.5,115C 718.524,122.641 703.857,135.307 693.5,153C 689.076,151.291 685.076,148.624 681.5,145C 656.041,129.986 629.375,127.486 601.5,137.5C 601.167,137.167 600.833,136.833 600.5,136.5C 619.015,117.152 638.015,98.3187 657.5,80C 664.745,74.5387 672.745,71.0387 681.5,69.5 Z"/></g>
<g><path style="opacity=1" fill="currentColor" d="M 762.5,148.5 C 790.988,145.31 810.155,156.977 820,183.5C 822.59,192.101 822.923,200.767 821,209.5C 774.941,319.012 728.108,428.179 680.5,537C 686.348,540.09 692.348,542.923 698.5,545.5C 739.989,451.895 780.822,357.895 821,263.5C 832.716,238.826 852.216,228.326 879.5,232C 900.667,237.167 913.833,250.333 919,271.5C 920.338,282.092 919.338,292.426 916,302.5C 875.167,396.833 834.333,491.167 793.5,585.5C 798.605,588.259 803.771,590.926 809,593.5C 836.409,530.352 864.076,467.352 892,404.5C 905.61,386.738 923.443,380.238 945.5,385C 973.716,394.901 985.883,414.735 982,444.5C 980.595,450.382 978.595,456.049 976,461.5C 913.725,604.383 851.725,747.383 790,890.5C 755.501,949.602 703.835,980.602 635,983.5C 614.593,983.218 594.76,979.718 575.5,973C 537.717,956.942 500.05,940.608 462.5,924C 414.363,899.521 382.529,861.355 367,809.5C 311.833,713.167 256.667,616.833 201.5,520.5C 242.336,484.911 286.002,481.078 332.5,509C 338.969,514.468 345.136,520.301 351,526.5C 370.914,555.327 390.581,584.327 410,613.5C 469.258,477.314 528.258,340.98 587,204.5C 599.375,176.23 620.541,166.064 650.5,174C 672.606,184.041 683.106,201.208 682,225.5C 681.281,230.658 679.948,235.658 678,240.5C 642.218,323.849 606.052,407.016 569.5,490C 575.523,492.096 581.356,494.596 587,497.5C 633.942,389.95 680.609,282.283 727,174.5C 735.071,160.582 746.904,151.916 762.5,148.5 Z"/></g>
</svg>
