<?xml version="1.0" encoding="UTF-8"?>
<!DOCTYPE svg PUBLIC "-//W3C//DTD SVG 1.1//EN" "http://www.w3.org/Graphics/SVG/1.1/DTD/svg11.dtd">
<svg xmlns="http://www.w3.org/2000/svg" version="1.1" viewBox="0 0 1024 1024" style="shape-rendering:geometricPrecision; text-rendering:geometricPrecision; image-rendering:optimizeQuality; fill-rule:evenodd; clip-rule:evenodd" xmlns:xlink="http://www.w3.org/1999/xlink">
<g><path style="opacity=1" fill="currentColor" d="M 439.5,84.5 C 487.501,84.3333 535.501,84.5 583.5,85C 599.115,87.9467 609.948,96.78 616,111.5C 621.775,138.546 627.609,165.546 633.5,192.5C 667.637,205.224 698.637,223.057 726.5,246C 727.833,246.667 729.167,246.667 730.5,246C 755.379,237.263 780.379,228.929 805.5,221C 825.873,218.936 841.04,226.769 851,244.5C 873,283.167 895,321.833 917,360.5C 921.602,375.154 919.602,388.82 911,401.5C 891.797,419.039 872.297,436.205 852.5,453C 850.773,454.389 849.439,456.056 848.5,458C 854.962,494.179 855.129,530.346 849,566.5C 869.964,584.462 890.631,602.795 911,621.5C 922.286,639.113 922.286,656.78 911,674.5C 889.252,712.331 867.252,749.997 845,787.5C 832.753,800.273 817.92,804.773 800.5,801C 776.532,792.733 752.532,784.566 728.5,776.5C 699.831,799.347 668.165,817.347 633.5,830.5C 627.609,857.454 621.775,884.454 616,911.5C 609.948,926.22 599.115,935.053 583.5,938C 535.5,938.667 487.5,938.667 439.5,938C 423.885,935.053 413.052,926.22 407,911.5C 401.225,884.454 395.391,857.454 389.5,830.5C 355.363,817.776 324.363,799.943 296.5,777C 295.167,776.333 293.833,776.333 292.5,777C 267.621,785.737 242.621,794.071 217.5,802C 197.127,804.064 181.96,796.231 172,778.5C 150,739.833 128,701.167 106,662.5C 101.398,647.846 103.398,634.18 112,621.5C 131.203,603.961 150.703,586.795 170.5,570C 172.227,568.611 173.561,566.944 174.5,565C 168.038,528.821 167.871,492.654 174,456.5C 153.036,438.538 132.369,420.205 112,401.5C 100.714,383.887 100.714,366.22 112,348.5C 133.748,310.669 155.748,273.003 178,235.5C 190.205,222.544 205.039,218.044 222.5,222C 246.468,230.267 270.468,238.434 294.5,246.5C 323.169,223.653 354.835,205.653 389.5,192.5C 395.391,165.546 401.225,138.546 407,111.5C 413.219,96.7674 424.053,87.7674 439.5,84.5 Z M 509.5,223.5 C 621.484,227.376 705.984,277.042 763,372.5C 807.704,459.387 810.037,547.387 770,636.5C 721.355,729.428 644.855,782.928 540.5,797C 428.639,804.473 339.805,763.307 274,673.5C 221.496,592.136 210.496,505.469 241,413.5C 275.125,326.041 336.625,267.208 425.5,237C 453.035,228.688 481.035,224.188 509.5,223.5 Z"/></g>
<g><path style="opacity=1" fill="currentColor" d="M 442.5,304.5 C 458.833,304.5 475.167,304.5 491.5,304.5C 491.5,391.167 491.5,477.833 491.5,564.5C 456.833,564.5 422.167,564.5 387.5,564.5C 391.667,540.498 395.501,516.498 399,492.5C 373.667,467.167 348.333,441.833 323,416.5C 317,407.833 317,399.167 323,390.5C 332.003,381.676 342.17,380.176 353.5,386C 371.667,404.167 389.833,422.333 408,440.5C 415.109,399.509 422.109,358.509 429,317.5C 432.101,311.563 436.601,307.23 442.5,304.5 Z"/></g>
<g><path style="opacity=1" fill="currentColor" d="M 531.5,304.5 C 547.503,304.333 563.503,304.5 579.5,305C 585.841,306.675 590.341,310.508 593,316.5C 607.807,399.006 621.64,481.672 634.5,564.5C 600.167,564.5 565.833,564.5 531.5,564.5C 531.5,477.833 531.5,391.167 531.5,304.5 Z"/></g>
<g><path style="opacity=1" fill="currentColor" d="M 380.5,604.5 C 467.503,604.167 554.503,604.5 641.5,605.5C 646.872,634.064 651.705,662.731 656,691.5C 659.36,706.831 653.527,716.331 638.5,720C 552.123,720.989 465.79,720.656 379.5,719C 370.511,715.206 365.844,708.373 365.5,698.5C 370.285,667.125 375.285,635.792 380.5,604.5 Z"/></g>
</svg>
