<?xml version="1.0" encoding="UTF-8"?>
<!DOCTYPE svg PUBLIC "-//W3C//DTD SVG 1.1//EN" "http://www.w3.org/Graphics/SVG/1.1/DTD/svg11.dtd">
<svg xmlns="http://www.w3.org/2000/svg" version="1.1" viewBox="0 0 1024 1024" style="shape-rendering:geometricPrecision; text-rendering:geometricPrecision; image-rendering:optimizeQuality; fill-rule:evenodd; clip-rule:evenodd" xmlns:xlink="http://www.w3.org/1999/xlink">
<g><path style="opacity=1" fill="currentColor" d="M 461.5,84.5 C 494.835,84.3333 528.168,84.5 561.5,85C 581.561,89.727 593.394,102.227 597,122.5C 597.5,237.833 597.667,353.166 597.5,468.5C 648.834,468.333 700.168,468.5 751.5,469C 766.071,474.328 770.904,484.494 766,499.5C 763.588,503.916 760.422,507.749 756.5,511C 683.198,579.3 610.198,647.967 537.5,717C 516.331,729.716 496.664,727.716 478.5,711C 408.358,644.435 338.024,578.102 267.5,512C 253.946,501.049 251.946,488.382 261.5,474C 264.554,471.806 267.888,470.139 271.5,469C 322.832,468.5 374.166,468.333 425.5,468.5C 425.333,353.166 425.5,237.833 426,122.5C 429.791,102.212 441.624,89.5457 461.5,84.5 Z"/></g>
<g><path style="opacity=1" fill="currentColor" d="M 119.5,852.5 C 380.834,852.333 642.167,852.5 903.5,853C 930.754,860.601 942.254,878.434 938,906.5C 932.539,923.628 921.039,934.128 903.5,938C 642.167,938.667 380.833,938.667 119.5,938C 92.2456,930.399 80.7456,912.566 85,884.5C 90.6366,867.359 102.137,856.692 119.5,852.5 Z"/></g>
</svg>
