<?xml version="1.0" encoding="UTF-8"?>
<!DOCTYPE svg PUBLIC "-//W3C//DTD SVG 1.1//EN" "http://www.w3.org/Graphics/SVG/1.1/DTD/svg11.dtd">
<svg xmlns="http://www.w3.org/2000/svg" version="1.1" viewBox="0 0 512 512" style="shape-rendering:geometricPrecision; text-rendering:geometricPrecision; image-rendering:optimizeQuality; fill-rule:evenodd; clip-rule:evenodd" xmlns:xlink="http://www.w3.org/1999/xlink">
<g><path style="opacity=1" fill="currentColor" d="M 511.5,99.5 C 511.5,111.833 511.5,124.167 511.5,136.5C 509.108,152.277 505.608,167.944 501,183.5C 489.56,217.828 476.56,251.495 462,284.5C 451.717,296.483 438.883,300.65 423.5,297C 393.018,287.062 362.684,276.728 332.5,266C 324.817,260.978 319.317,254.145 316,245.5C 313.754,212.793 314.421,180.127 318,147.5C 321.332,114.501 331.998,84.1672 350,56.5C 359.767,43.1897 371.601,32.023 385.5,23C 418.115,6.50377 448.782,9.50377 477.5,32C 496.971,50.4424 508.304,72.9424 511.5,99.5 Z"/></g>
<g><path style="opacity=1" fill="currentColor" d="M -0.5,193.5 C -0.5,181.5 -0.5,169.5 -0.5,157.5C 3.07947,125.505 18.0795,100.338 44.5,82C 79.1187,63.2911 111.452,66.6244 141.5,92C 166.614,116.72 182.448,146.553 189,181.5C 196.163,221.59 198.163,261.924 195,302.5C 192.488,311.345 187.321,318.178 179.5,323C 148.724,334.259 117.724,344.925 86.5,355C 69.9015,358.251 56.7348,353.084 47,339.5C 32.6097,305.046 19.6097,270.046 8,234.5C 4.30767,220.867 1.47434,207.2 -0.5,193.5 Z"/></g>
<g><path style="opacity=1" fill="currentColor" d="M 320.5,307.5 C 325.215,307.506 329.882,308.006 334.5,309C 359.224,316.685 383.557,325.351 407.5,335C 419.325,344.803 423.825,357.303 421,372.5C 416.45,385.481 411.116,398.148 405,410.5C 383.697,438.71 356.197,447.21 322.5,436C 292.552,421.614 279.052,397.78 282,364.5C 284.687,353.085 287.687,341.752 291,330.5C 296.677,317.304 306.51,309.638 320.5,307.5 Z"/></g>
<g><path style="opacity=1" fill="currentColor" d="M 180.5,365.5 C 196.789,363.896 209.289,369.896 218,383.5C 225.983,402.418 229.649,422.084 229,442.5C 222.394,473.44 203.56,491.94 172.5,498C 143.448,501.112 120.948,490.612 105,466.5C 99.448,454.729 94.448,442.729 90,430.5C 86.8793,411.576 93.7126,397.742 110.5,389C 133.847,380.829 157.18,372.996 180.5,365.5 Z"/></g>
</svg>
