<?xml version="1.0" encoding="UTF-8"?>
<!DOCTYPE svg PUBLIC "-//W3C//DTD SVG 1.1//EN" "http://www.w3.org/Graphics/SVG/1.1/DTD/svg11.dtd">
<svg xmlns="http://www.w3.org/2000/svg" version="1.1" viewBox="0 0 1024 1024" style="shape-rendering:geometricPrecision; text-rendering:geometricPrecision; image-rendering:optimizeQuality; fill-rule:evenodd; clip-rule:evenodd" xmlns:xlink="http://www.w3.org/1999/xlink">
<g><path style="opacity:1" fill="currentColor" d="M 162.5,169.5 C 250.501,169.333 338.501,169.5 426.5,170C 454.833,198.333 483.167,226.667 511.5,255C 629.833,255.333 748.167,255.667 866.5,256C 907.001,264.834 930.834,289.668 938,330.5C 938.667,479.833 938.667,629.167 938,778.5C 929.504,821.329 903.671,846.162 860.5,853C 627.833,853.667 395.167,853.667 162.5,853C 119.329,846.162 93.4961,821.329 85,778.5C 84.3333,600.5 84.3333,422.5 85,244.5C 93.6723,201.66 119.506,176.66 162.5,169.5 Z M 170.5,255.5 C 243.834,255.333 317.167,255.5 390.5,256C 418.833,284.333 447.167,312.667 475.5,341C 601.166,341.5 726.833,341.667 852.5,341.5C 852.5,483.5 852.5,625.5 852.5,767.5C 625.167,767.5 397.833,767.5 170.5,767.5C 170.5,596.833 170.5,426.167 170.5,255.5 Z"/></g>
</svg>
