<?xml version="1.0" encoding="UTF-8"?>
<!DOCTYPE svg PUBLIC "-//W3C//DTD SVG 1.1//EN" "http://www.w3.org/Graphics/SVG/1.1/DTD/svg11.dtd">
<svg xmlns="http://www.w3.org/2000/svg" version="1.1" viewBox="0 0 1024 1024" style="shape-rendering:geometricPrecision; text-rendering:geometricPrecision; image-rendering:optimizeQuality; fill-rule:evenodd; clip-rule:evenodd" xmlns:xlink="http://www.w3.org/1999/xlink">
<g><path style="opacity:1" fill="currentColor" d="M 675.5,127.5 C 761.33,123.325 826.497,157.658 871,230.5C 898.822,283.953 903.155,339.286 884,396.5C 875.489,419.871 863.156,440.871 847,459.5C 824.5,482 802,504.5 779.5,527C 726.373,570.696 666.039,585.03 598.5,570C 590.213,567.85 582.213,565.016 574.5,561.5C 591.319,544.181 608.319,527.014 625.5,510C 670.713,515.373 710.047,502.706 743.5,472C 762.695,453.138 781.529,433.972 800,414.5C 832.41,371.632 839.076,324.965 820,274.5C 794.906,222.517 753.406,194.85 695.5,191.5C 658.44,192.679 626.44,205.845 599.5,231C 577.572,251.925 556.739,273.758 537,296.5C 516.909,327.203 508.909,360.869 513,397.5C 495.986,414.681 478.819,431.681 461.5,448.5C 449.234,418.716 444.734,387.716 448,355.5C 452.553,313.081 468.553,275.748 496,243.5C 518.5,221 541,198.5 563.5,176C 595.935,148.618 633.268,132.452 675.5,127.5 Z"/></g>
<g><path style="opacity:1" fill="currentColor" d="M 615.5,360.5 C 631.415,374.912 646.915,389.912 662,405.5C 662.667,406.167 662.667,406.833 662,407.5C 577.167,492.333 492.333,577.167 407.5,662C 406.833,662.667 406.167,662.667 405.5,662C 390.667,647.167 375.833,632.333 361,617.5C 360.333,616.833 360.333,616.167 361,615.5C 446.035,530.632 530.868,445.632 615.5,360.5 Z"/></g>
<g><path style="opacity:1" fill="currentColor" d="M 355.5,447.5 C 378.776,446.156 401.776,447.989 424.5,453C 432.787,455.15 440.787,457.984 448.5,461.5C 431.681,478.819 414.681,495.986 397.5,513C 352.287,507.627 312.953,520.294 279.5,551C 263.333,567.167 247.167,583.333 231,599.5C 191.846,643.405 182.513,693.072 203,748.5C 228.094,800.483 269.594,828.15 327.5,831.5C 364.56,830.321 396.56,817.155 423.5,792C 445.428,771.075 466.261,749.242 486,726.5C 506.091,695.797 514.091,662.131 510,625.5C 527.014,608.319 544.181,591.319 561.5,574.5C 585.456,638.85 579.29,700.183 543,758.5C 537.909,765.68 532.576,772.68 527,779.5C 504.5,802 482,824.5 459.5,847C 405.036,891.695 343.369,905.695 274.5,889C 214.452,870.722 170.952,833.222 144,776.5C 125.827,732.975 122.494,688.308 134,642.5C 142.453,613.092 156.453,586.758 176,563.5C 198.5,541 221,518.5 243.5,496C 275.935,468.618 313.268,452.452 355.5,447.5 Z"/></g>
</svg>
