<?xml version="1.0" encoding="UTF-8"?>
<!DOCTYPE svg PUBLIC "-//W3C//DTD SVG 1.1//EN" "http://www.w3.org/Graphics/SVG/1.1/DTD/svg11.dtd">
<svg xmlns="http://www.w3.org/2000/svg" version="1.1" viewBox="0 0 1024 1024" style="shape-rendering:geometricPrecision; text-rendering:geometricPrecision; image-rendering:optimizeQuality; fill-rule:evenodd; clip-rule:evenodd" xmlns:xlink="http://www.w3.org/1999/xlink">
<g><path style="opacity=1" fill="currentColor" d="M 499.5,60.5 C 552.44,58.3798 592.606,79.7132 620,124.5C 643.445,173.779 638.778,220.112 606,263.5C 568.21,303.991 522.71,316.158 469.5,300C 423.751,281.243 396.917,247.409 389,198.5C 384.872,146.595 404.372,106.428 447.5,78C 463.781,68.629 481.114,62.7957 499.5,60.5 Z"/></g>
<g><path style="opacity=1" fill="currentColor" d="M 496.5,388.5 C 549.891,384.944 590.725,405.611 619,450.5C 637.37,486.249 639.37,522.916 625,560.5C 598.547,613.224 555.714,637.724 496.5,634C 455.815,628.09 424.981,607.59 404,572.5C 387.625,541.992 383.958,509.992 393,476.5C 405.365,438.135 430.198,411.302 467.5,396C 477.095,392.686 486.762,390.186 496.5,388.5 Z"/></g>
<g><path style="opacity=1" fill="currentColor" d="M 504.5,715.5 C 565.565,716.097 607.065,744.764 629,801.5C 642.721,850.978 631.554,893.811 595.5,930C 560.077,960.421 519.743,969.421 474.5,957C 425.584,939.413 397.084,904.913 389,853.5C 385.348,798.964 406.848,757.797 453.5,730C 469.693,721.873 486.693,717.039 504.5,715.5 Z"/></g>
</svg>
