<?xml version="1.0" encoding="UTF-8"?>
<!DOCTYPE svg PUBLIC "-//W3C//DTD SVG 1.1//EN" "http://www.w3.org/Graphics/SVG/1.1/DTD/svg11.dtd">
<svg xmlns="http://www.w3.org/2000/svg" version="1.1" viewBox="0 0 1024 1024" style="shape-rendering:geometricPrecision; text-rendering:geometricPrecision; image-rendering:optimizeQuality; fill-rule:evenodd; clip-rule:evenodd" xmlns:xlink="http://www.w3.org/1999/xlink">
<g><path style="opacity=1" fill="currentColor" d="M 374.5,86.5 C 406.167,86.5 437.833,86.5 469.5,86.5C 469.5,264.5 469.5,442.5 469.5,620.5C 399.167,620.5 328.833,620.5 258.5,620.5C 265.756,571.377 273.756,522.377 282.5,473.5C 230.18,420.68 177.68,368.014 125,315.5C 111.713,293.055 114.547,272.888 133.5,255C 152.339,243.143 170.673,243.81 188.5,257C 225.333,293.833 262.167,330.667 299,367.5C 313.653,283.917 327.986,200.251 342,116.5C 347.618,100.71 358.451,90.7104 374.5,86.5 Z"/></g>
<g><path style="opacity=1" fill="currentColor" d="M 553.5,86.5 C 585.168,86.3334 616.835,86.5 648.5,87C 663.567,90.4004 674.067,99.2337 680,113.5C 709.031,282.355 737.198,451.355 764.5,620.5C 694.167,620.5 623.833,620.5 553.5,620.5C 553.5,442.5 553.5,264.5 553.5,86.5 Z"/></g>
<g><path style="opacity=1" fill="currentColor" d="M 243.5,704.5 C 422.167,704.5 600.833,704.5 779.5,704.5C 789.556,765.838 799.723,827.171 810,888.5C 812.904,916.566 800.737,933.733 773.5,940C 598.833,940.667 424.167,940.667 249.5,940C 222.263,933.733 210.096,916.566 213,888.5C 223.277,827.171 233.444,765.838 243.5,704.5 Z"/></g>
</svg>
