<?xml version="1.0" encoding="UTF-8"?>
<!DOCTYPE svg PUBLIC "-//W3C//DTD SVG 1.1//EN" "http://www.w3.org/Graphics/SVG/1.1/DTD/svg11.dtd">
<svg xmlns="http://www.w3.org/2000/svg" version="1.1" viewBox="0 0 1024 1024" style="shape-rendering:geometricPrecision; text-rendering:geometricPrecision; image-rendering:optimizeQuality; fill-rule:evenodd; clip-rule:evenodd" xmlns:xlink="http://www.w3.org/1999/xlink">
<g><path style="opacity=1" fill="currentColor" d="M 292.5,126.5 C 326.323,126.822 342.49,143.822 341,177.5C 339.709,184.415 337.042,190.748 333,196.5C 299.5,230 266,263.5 232.5,297C 372.5,297.333 512.5,297.667 652.5,298C 761.557,305.91 844.057,356.41 900,449.5C 943.081,529.4 950.081,612.4 921,698.5C 881.309,798.854 809.143,862.354 704.5,889C 690.956,891.84 677.289,893.84 663.5,895C 552.5,895.667 441.5,895.667 330.5,895C 302.294,885.093 292.127,865.593 300,836.5C 305.502,822.999 315.335,814.499 329.5,811C 438.132,809.677 546.798,809.01 655.5,809C 739.168,799.774 799.001,757.274 835,681.5C 862.127,613.022 857.127,547.022 820,483.5C 782.079,426.434 728.912,393.601 660.5,385C 517.51,383.366 374.51,383.033 231.5,384C 265.667,418.167 299.833,452.333 334,486.5C 341.978,499.684 343.645,513.684 339,528.5C 327.362,550.898 309.195,559.065 284.5,553C 279.72,551.444 275.387,549.111 271.5,546C 212.973,487.139 154.139,428.639 95,370.5C 80.5407,352.016 79.874,333.016 93,313.5C 153.139,254.361 212.973,194.861 272.5,135C 278.73,130.876 285.397,128.043 292.5,126.5 Z"/></g>
</svg>
