<?xml version="1.0" encoding="UTF-8"?>
<!DOCTYPE svg PUBLIC "-//W3C//DTD SVG 1.1//EN" "http://www.w3.org/Graphics/SVG/1.1/DTD/svg11.dtd">
<svg xmlns="http://www.w3.org/2000/svg" version="1.1" viewBox="0 0 1024 1024" style="shape-rendering:geometricPrecision; text-rendering:geometricPrecision; image-rendering:optimizeQuality; fill-rule:evenodd; clip-rule:evenodd" xmlns:xlink="http://www.w3.org/1999/xlink">
<g><path style="opacity=1" fill="currentColor" d="M 843.5,255.5 C 869.597,252.788 886.764,263.788 895,288.5C 895.667,437.167 895.667,585.833 895,734.5C 888.884,755.624 874.884,766.624 853,767.5C 828.827,766.664 814.494,754.331 810,730.5C 809.333,584.5 809.333,438.5 810,292.5C 813.375,272.965 824.541,260.632 843.5,255.5 Z"/></g>
<g><path style="opacity=1" fill="currentColor" d="M 164.5,294.5 C 174.021,293.838 183.021,295.671 191.5,300C 274.833,358.667 358.167,417.333 441.5,476C 460.342,492.542 464.175,512.042 453,534.5C 449.535,538.967 445.702,543.133 441.5,547C 360.991,603.421 280.658,660.087 200.5,717C 181.082,731.924 161.415,732.257 141.5,718C 134.553,711.61 130.053,703.777 128,694.5C 127.333,572.5 127.333,450.5 128,328.5C 132.988,309.342 145.154,298.009 164.5,294.5 Z"/></g>
<g><path style="opacity=1" fill="currentColor" d="M 506.5,294.5 C 516.475,293.928 525.808,296.095 534.5,301C 618.167,360 701.833,419 785.5,478C 800.444,492.614 804.277,509.78 797,529.5C 794.274,534.893 790.774,539.726 786.5,544C 700.85,604.826 614.85,665.159 528.5,725C 503.916,732.807 485.082,725.64 472,703.5C 470.798,700.226 469.798,696.893 469,693.5C 468.333,572.5 468.333,451.5 469,330.5C 473.877,310.455 486.377,298.455 506.5,294.5 Z"/></g>
</svg>
