<?xml version="1.0" encoding="UTF-8"?>
<!DOCTYPE svg PUBLIC "-//W3C//DTD SVG 1.1//EN" "http://www.w3.org/Graphics/SVG/1.1/DTD/svg11.dtd">
<svg xmlns="http://www.w3.org/2000/svg" version="1.1" viewBox="0 0 1024 1024" style="shape-rendering:geometricPrecision; text-rendering:geometricPrecision; image-rendering:optimizeQuality; fill-rule:evenodd; clip-rule:evenodd" xmlns:xlink="http://www.w3.org/1999/xlink">
<g><path style="opacity=1" fill="currentColor" d="M 487.5,84.5 C 623.534,80.3002 737.701,127.634 830,226.5C 925.416,338.492 957.749,466.825 927,611.5C 891.561,744.921 811.728,841.421 687.5,901C 584.752,945.433 480.085,950.433 373.5,916C 244.489,868.989 155.989,781.156 108,652.5C 67.8841,529.663 78.8841,411.663 141,298.5C 209.756,184.477 309.923,114.977 441.5,90C 456.929,87.6933 472.263,85.86 487.5,84.5 Z M 506.5,170.5 C 531.076,170.256 546.576,181.923 553,205.5C 554.884,230.269 544.051,246.435 520.5,254C 501.855,256.755 487.022,250.588 476,235.5C 464.216,212.142 468.716,192.642 489.5,177C 495.02,174.11 500.686,171.943 506.5,170.5 Z M 298.5,255.5 C 323.968,258.634 337.968,272.968 340.5,298.5C 337.436,323.731 323.269,337.731 298,340.5C 272.328,337.828 258.494,323.662 256.5,298C 258.677,272.09 272.677,257.923 298.5,255.5 Z M 716.5,256.5 C 741.902,254.434 758.402,265.434 766,289.5C 768.321,302.881 765.321,314.881 757,325.5C 696.333,386.167 635.667,446.833 575,507.5C 574.796,537.682 560.963,558.849 533.5,571C 500.664,580.497 474.831,570.997 456,542.5C 441.943,512.456 446.777,485.956 470.5,463C 483.747,452.362 498.747,447.362 515.5,448C 576.167,387.333 636.833,326.667 697.5,266C 703.378,261.727 709.712,258.561 716.5,256.5 Z M 205.5,469.5 C 230.236,468.091 246.403,479.091 254,502.5C 256.982,521.24 250.815,536.073 235.5,547C 212.142,558.784 192.642,554.284 177,533.5C 166.101,511.663 169.934,492.83 188.5,477C 193.872,473.607 199.538,471.107 205.5,469.5 Z M 803.5,469.5 C 829.936,468.441 846.102,480.775 852,506.5C 852.715,531.112 841.215,546.612 817.5,553C 792.731,554.884 776.565,544.051 769,520.5C 766.479,493.877 777.979,476.877 803.5,469.5 Z M 293.5,682.5 C 319.376,682.548 334.876,695.214 340,720.5C 341.126,737.139 334.959,750.306 321.5,760C 299.46,771.597 280.294,768.097 264,749.5C 254.421,733.722 254.087,717.722 263,701.5C 270.792,691.196 280.958,684.862 293.5,682.5 Z M 720.5,682.5 C 752.755,684.255 767.922,701.255 766,733.5C 758.103,758.042 741.27,768.875 715.5,766C 690.836,757.506 680.336,740.34 684,714.5C 689.861,696.463 702.028,685.796 720.5,682.5 Z"/></g>
</svg>
