<?xml version="1.0" encoding="UTF-8"?>
<!DOCTYPE svg PUBLIC "-//W3C//DTD SVG 1.1//EN" "http://www.w3.org/Graphics/SVG/1.1/DTD/svg11.dtd">
<svg xmlns="http://www.w3.org/2000/svg" version="1.1" viewBox="0 0 1024 1024" style="shape-rendering:geometricPrecision; text-rendering:geometricPrecision; image-rendering:optimizeQuality; fill-rule:evenodd; clip-rule:evenodd" xmlns:xlink="http://www.w3.org/1999/xlink">
<g><path style="opacity=1" fill="currentColor" d="M 244.5,84.5 C 362.167,84.3333 479.834,84.5 597.5,85C 682.667,170.167 767.833,255.333 853,340.5C 853.667,513.833 853.667,687.167 853,860.5C 846.162,903.671 821.329,929.504 778.5,938C 600.5,938.667 422.5,938.667 244.5,938C 201.671,929.504 176.838,903.671 170,860.5C 169.333,627.833 169.333,395.167 170,162.5C 177.02,119.316 201.854,93.3162 244.5,84.5 Z M 255.5,170.5 C 354.833,170.5 454.167,170.5 553.5,170.5C 553.5,241.5 553.5,312.5 553.5,383.5C 624.833,383.5 696.167,383.5 767.5,383.5C 767.5,539.833 767.5,696.167 767.5,852.5C 596.833,852.5 426.167,852.5 255.5,852.5C 255.5,625.167 255.5,397.833 255.5,170.5 Z"/></g>
</svg>
