<?xml version="1.0" encoding="UTF-8"?>
<!DOCTYPE svg PUBLIC "-//W3C//DTD SVG 1.1//EN" "http://www.w3.org/Graphics/SVG/1.1/DTD/svg11.dtd">
<svg xmlns="http://www.w3.org/2000/svg" version="1.1" viewBox="0 0 1024 1024" style="shape-rendering:geometricPrecision; text-rendering:geometricPrecision; image-rendering:optimizeQuality; fill-rule:evenodd; clip-rule:evenodd" xmlns:xlink="http://www.w3.org/1999/xlink">
<g><path style="opacity=1" fill="currentColor" d="M 931.5,55.5 C 932.552,55.3505 933.552,55.5172 934.5,56C 947.667,69.1667 960.833,82.3333 974,95.5C 974.667,96.1667 974.667,96.8333 974,97.5C 682.694,389.806 391.027,681.806 99,973.5C 85.1667,959.667 71.3333,945.833 57.5,932C 349.062,639.938 640.395,347.772 931.5,55.5 Z"/></g>
<g><path style="opacity=1" fill="currentColor" d="M 494.5,169.5 C 555.206,167.815 614.206,176.982 671.5,197C 684.881,201.859 697.881,207.525 710.5,214C 675.695,249.806 640.528,285.306 605,320.5C 532.944,287.778 463.111,291.945 395.5,333C 333.535,376.077 301.202,435.577 298.5,511.5C 298.839,544.353 306.172,575.52 320.5,605C 278.833,646.667 237.167,688.333 195.5,730C 194.833,730.667 194.167,730.667 193.5,730C 130.125,672.071 80.292,604.238 44,526.5C 40.7158,516.486 40.7158,506.486 44,496.5C 89.3219,398.047 155.822,316.88 243.5,253C 319.068,201.089 402.734,173.255 494.5,169.5 Z"/></g>
<g><path style="opacity=1" fill="currentColor" d="M 835.5,299.5 C 850.776,312.942 865.276,327.275 879,342.5C 918.348,387.564 951.014,437.23 977,491.5C 982.035,502.915 982.701,514.582 979,526.5C 933.678,624.953 867.178,706.12 779.5,770C 674.198,841.066 558.531,866.733 432.5,847C 394.785,840.705 358.452,829.872 323.5,814.5C 322.479,813.998 322.312,813.332 323,812.5C 358.014,777.32 393.18,742.32 428.5,707.5C 507.19,737.426 579.857,726.926 646.5,676C 705.662,624.212 730.828,559.045 722,480.5C 719.347,462.554 714.514,445.22 707.5,428.5C 750.188,385.479 792.854,342.479 835.5,299.5 Z"/></g>
<g><path style="opacity=1" fill="currentColor" d="M 495.5,383.5 C 509.24,383.023 522.907,383.689 536.5,385.5C 537.932,385.733 538.432,386.4 538,387.5C 487.333,438.167 436.667,488.833 386,539.5C 376.197,481.302 395.363,435.469 443.5,402C 459.762,392.526 477.095,386.359 495.5,383.5 Z"/></g>
<g><path style="opacity=1" fill="currentColor" d="M 638.5,496.5 C 642.97,559.39 616.637,604.223 559.5,631C 539.17,638.809 518.17,641.475 496.5,639C 544.035,591.632 591.368,544.132 638.5,496.5 Z"/></g>
</svg>
